<?xml version="1.0" encoding="UTF-8"?>
<!DOCTYPE svg PUBLIC "-//W3C//DTD SVG 1.1//EN" "http://www.w3.org/Graphics/SVG/1.1/DTD/svg11.dtd">
<svg xmlns="http://www.w3.org/2000/svg" version="1.1" viewBox="0 0 73 73" stroke="none">
	<rect width="100%" height="100%" fill="#ffffff"/>
	<path d="M20,20h7v1h-7z M29,20h2v2h-2z M32,20h2v1h-2z M37,20h1v1h-1z M39,20h1v1h-1z M41,20h1v6h-1z M42,20h3v1h-3z M46,20h7v1h-7z M20,21h1v6h-1z M26,21h1v6h-1z M33,21h3v1h-3z M44,21h1v1h-1z M46,21h1v6h-1z M52,21h1v6h-1z M22,22h3v3h-3z M28,22h1v6h-1z M30,22h1v1h-1z M33,22h1v1h-1z M39,22h2v1h-2z M42,22h2v3h-2z M48,22h3v3h-3z M34,23h5v1h-5z M44,23h1v1h-1z M32,24h2v2h-2z M35,24h1v2h-1z M40,24h1v5h-1z M34,25h1v2h-1z M36,25h1v2h-1z M44,25h1v7h-1z M21,26h5v1h-5z M30,26h1v2h-1z M32,26h1v2h-1z M38,26h1v8h-1z M42,26h1v1h-1z M47,26h5v1h-5z M29,27h1v3h-1z M31,27h1v1h-1z M35,27h1v2h-1z M39,27h1v1h-1z M41,27h1v1h-1z M43,27h1v3h-1z M20,28h1v1h-1z M22,28h5v1h-5z M33,28h2v1h-2z M36,28h1v4h-1z M37,28h1v1h-1z M46,28h5v1h-5z M23,29h1v1h-1z M28,29h1v2h-1z M30,29h1v2h-1z M39,29h1v1h-1z M41,29h1v3h-1z M45,29h3v1h-3z M49,29h2v1h-2z M52,29h1v1h-1z M20,30h1v4h-1z M21,30h1v1h-1z M26,30h1v1h-1z M31,30h2v1h-2z M35,30h1v4h-1z M37,30h1v1h-1z M42,30h1v1h-1z M45,30h1v2h-1z M48,30h1v3h-1z M50,30h2v2h-2z M27,31h1v2h-1z M29,31h1v8h-1z M34,31h1v1h-1z M39,31h1v1h-1z M49,31h1v3h-1z M21,32h1v1h-1z M25,32h2v1h-2z M31,32h1v1h-1z M42,32h1v1h-1z M47,32h1v1h-1z M51,32h2v2h-2z M23,33h1v1h-1z M25,33h1v1h-1z M32,33h3v1h-3z M36,33h2v1h-2z M40,33h1v4h-1z M43,33h1v1h-1z M45,33h2v1h-2z M26,34h3v1h-3z M30,34h1v3h-1z M34,34h1v4h-1z M37,34h1v1h-1z M42,34h1v1h-1z M44,34h1v2h-1z M50,34h2v1h-2z M22,35h4v1h-4z M27,35h2v1h-2z M31,35h1v3h-1z M32,35h1v1h-1z M36,35h1v1h-1z M39,35h1v3h-1z M41,35h1v1h-1z M43,35h1v3h-1z M45,35h1v1h-1z M48,35h1v2h-1z M50,35h1v1h-1z M20,36h1v2h-1z M22,36h1v1h-1z M24,36h3v1h-3z M28,36h1v1h-1z M33,36h1v3h-1z M37,36h1v4h-1z M47,36h1v2h-1z M49,36h1v2h-1z M52,36h1v2h-1z M21,37h1v3h-1z M24,37h1v1h-1z M27,37h1v1h-1z M36,37h1v1h-1z M42,37h1v5h-1z M44,37h3v2h-3z M50,37h1v3h-1z M22,38h1v1h-1z M25,38h1v4h-1z M26,38h1v1h-1z M30,38h1v3h-1z M32,38h1v1h-1z M35,38h1v1h-1z M40,38h1v1h-1z M48,38h1v3h-1z M51,38h1v1h-1z M20,39h1v6h-1z M23,39h1v3h-1z M34,39h1v2h-1z M36,39h1v2h-1z M38,39h1v1h-1z M41,39h1v1h-1z M43,39h1v3h-1z M45,39h1v3h-1z M49,39h1v5h-1z M22,40h1v4h-1z M26,40h1v1h-1z M29,40h1v2h-1z M32,40h2v1h-2z M40,40h1v2h-1z M47,40h1v1h-1z M51,40h1v1h-1z M24,41h1v1h-1z M27,41h1v4h-1z M31,41h1v3h-1z M33,41h1v1h-1z M35,41h1v4h-1z M38,41h1v3h-1z M41,41h1v3h-1z M52,41h1v1h-1z M26,42h1v1h-1z M28,42h1v2h-1z M30,42h1v1h-1z M32,42h1v1h-1z M36,42h2v1h-2z M51,42h1v1h-1z M23,43h2v1h-2z M33,43h2v1h-2z M39,43h1v1h-1z M42,43h1v1h-1z M44,43h1v6h-1z M46,43h2v2h-2z M50,43h1v1h-1z M52,43h1v1h-1z M24,44h1v1h-1z M26,44h1v1h-1z M29,44h2v1h-2z M34,44h1v2h-1z M37,44h1v1h-1z M40,44h1v1h-1z M43,44h1v1h-1z M45,44h1v1h-1z M48,44h1v6h-1z M51,44h1v3h-1z M28,45h2v1h-2z M31,45h2v1h-2z M36,45h1v1h-1z M39,45h1v1h-1z M41,45h2v1h-2z M50,45h1v3h-1z M52,45h1v1h-1z M20,46h7v1h-7z M32,46h1v1h-1z M35,46h1v1h-1z M38,46h1v1h-1z M40,46h1v7h-1z M42,46h1v3h-1z M43,46h1v1h-1z M46,46h1v1h-1z M20,47h1v6h-1z M26,47h1v6h-1z M28,47h1v4h-1z M31,47h1v1h-1z M34,47h1v2h-1z M36,47h1v1h-1z M41,47h1v1h-1z M22,48h3v3h-3z M30,48h1v1h-1z M32,48h1v4h-1z M33,48h1v1h-1z M38,48h1v1h-1z M45,48h3v1h-3z M49,48h1v4h-1z M52,48h1v2h-1z M31,49h1v3h-1z M35,49h2v1h-2z M39,49h1v1h-1z M43,49h1v2h-1z M47,49h1v4h-1z M50,49h2v1h-2z M34,50h1v1h-1z M44,50h3v1h-3z M30,51h1v1h-1z M36,51h1v1h-1z M41,51h1v1h-1z M48,51h1v2h-1z M50,51h1v1h-1z M21,52h5v1h-5z M28,52h1v1h-1z M33,52h1v1h-1z M37,52h1v1h-1z M43,52h2v1h-2z M51,52h1v1h-1z" fill="#000000"/>
</svg>
