<?xml version="1.0" encoding="UTF-8"?>
<!DOCTYPE svg PUBLIC "-//W3C//DTD SVG 1.1//EN" "http://www.w3.org/Graphics/SVG/1.1/DTD/svg11.dtd">
<svg xmlns="http://www.w3.org/2000/svg" version="1.1" viewBox="0 0 81 81" stroke="none">
	<rect width="100%" height="100%" fill="#ffffff"/>
	<path d="M20,20h7v1h-7z M28,20h2v1h-2z M31,20h1v1h-1z M34,20h2v1h-2z M37,20h2v1h-2z M42,20h3v1h-3z M46,20h3v1h-3z M50,20h1v1h-1z M54,20h7v1h-7z M20,21h1v6h-1z M26,21h1v6h-1z M29,21h2v2h-2z M36,21h1v4h-1z M37,21h1v1h-1z M39,21h1v1h-1z M45,21h1v1h-1z M49,21h1v2h-1z M51,21h1v1h-1z M54,21h1v6h-1z M60,21h1v6h-1z M22,22h3v3h-3z M31,22h2v2h-2z M33,22h1v1h-1z M35,22h1v2h-1z M40,22h2v2h-2z M43,22h1v3h-1z M44,22h1v1h-1z M46,22h1v1h-1z M50,22h1v3h-1z M52,22h1v3h-1z M56,22h3v3h-3z M28,23h1v9h-1z M29,23h1v1h-1z M37,23h3v1h-3z M42,23h1v2h-1z M45,23h1v1h-1z M31,24h1v2h-1z M33,24h1v1h-1z M38,24h1v1h-1z M40,24h1v1h-1z M44,24h1v3h-1z M47,24h1v1h-1z M49,24h1v1h-1z M30,25h1v3h-1z M34,25h1v2h-1z M39,25h1v1h-1z M51,25h1v1h-1z M21,26h5v1h-5z M32,26h1v2h-1z M36,26h1v3h-1z M38,26h1v2h-1z M40,26h1v2h-1z M42,26h1v1h-1z M46,26h1v1h-1z M48,26h1v1h-1z M50,26h1v1h-1z M52,26h1v3h-1z M55,26h5v1h-5z M29,27h1v2h-1z M31,27h1v1h-1z M33,27h1v7h-1z M37,27h1v2h-1z M41,27h1v3h-1z M43,27h1v1h-1z M49,27h1v2h-1z M20,28h1v2h-1z M24,28h1v1h-1z M26,28h2v1h-2z M34,28h1v3h-1z M39,28h1v1h-1z M42,28h1v1h-1z M44,28h1v1h-1z M51,28h1v1h-1z M53,28h5v1h-5z M60,28h1v1h-1z M21,29h2v1h-2z M25,29h1v2h-1z M30,29h3v1h-3z M35,29h1v1h-1z M43,29h1v2h-1z M45,29h3v1h-3z M50,29h1v1h-1z M53,29h1v4h-1z M54,29h1v1h-1z M56,29h2v1h-2z M59,29h1v1h-1z M26,30h1v1h-1z M31,30h2v1h-2z M40,30h1v2h-1z M44,30h1v3h-1z M47,30h1v3h-1z M48,30h1v1h-1z M52,30h1v2h-1z M60,30h1v2h-1z M20,31h3v2h-3z M27,31h1v1h-1z M29,31h2v2h-2z M36,31h4v1h-4z M41,31h2v1h-2z M46,31h1v2h-1z M49,31h1v3h-1z M51,31h1v1h-1z M57,31h1v1h-1z M59,31h1v4h-1z M23,32h1v1h-1z M26,32h1v1h-1z M31,32h1v1h-1z M36,32h2v1h-2z M41,32h1v1h-1z M24,33h1v2h-1z M27,33h1v3h-1z M32,33h1v1h-1z M34,33h2v3h-2z M38,33h1v5h-1z M39,33h2v1h-2z M42,33h1v2h-1z M48,33h1v1h-1z M50,33h1v2h-1z M54,33h1v2h-1z M56,33h2v1h-2z M60,33h1v3h-1z M20,34h2v2h-2z M23,34h1v3h-1z M25,34h1v3h-1z M26,34h1v1h-1z M29,34h3v1h-3z M36,34h2v1h-2z M40,34h1v1h-1z M47,34h1v1h-1z M52,34h2v1h-2z M55,34h1v10h-1z M28,35h1v4h-1z M31,35h1v5h-1z M37,35h1v2h-1z M41,35h1v3h-1z M44,35h1v3h-1z M49,35h1v2h-1z M51,35h2v1h-2z M57,35h1v1h-1z M26,36h1v1h-1z M30,36h1v1h-1z M35,36h1v5h-1z M39,36h2v1h-2z M42,36h2v1h-2z M20,37h1v1h-1z M22,37h1v4h-1z M27,37h1v3h-1z M29,37h1v1h-1z M32,37h3v1h-3z M36,37h1v3h-1z M43,37h1v6h-1z M45,37h1v2h-1z M47,37h1v2h-1z M50,37h1v3h-1z M53,37h2v1h-2z M56,37h3v1h-3z M60,37h1v6h-1z M21,38h1v2h-1z M23,38h1v6h-1z M25,38h1v3h-1z M26,38h1v1h-1z M30,38h1v1h-1z M34,38h1v2h-1z M37,38h1v2h-1z M40,38h1v1h-1z M48,38h2v2h-2z M54,38h1v2h-1z M58,38h1v1h-1z M24,39h1v1h-1z M29,39h1v3h-1z M33,39h1v1h-1z M38,39h1v2h-1z M42,39h1v2h-1z M44,39h1v1h-1z M51,39h1v2h-1z M20,40h1v1h-1z M26,40h1v1h-1z M39,40h2v1h-2z M45,40h2v3h-2z M49,40h1v2h-1z M52,40h1v3h-1z M59,40h1v1h-1z M21,41h1v1h-1z M24,41h1v1h-1z M27,41h2v2h-2z M30,41h1v4h-1z M34,41h1v1h-1z M40,41h2v2h-2z M44,41h1v1h-1z M47,41h2v2h-2z M53,41h2v2h-2z M56,41h3v1h-3z M22,42h1v1h-1z M26,42h1v1h-1z M35,42h1v3h-1z M36,42h1v1h-1z M50,42h1v2h-1z M56,42h1v2h-1z M21,43h1v1h-1z M25,43h1v2h-1z M27,43h1v1h-1z M29,43h1v3h-1z M31,43h3v1h-3z M37,43h1v2h-1z M41,43h1v2h-1z M44,43h1v2h-1z M46,43h1v1h-1z M48,43h2v1h-2z M53,43h1v2h-1z M57,43h1v2h-1z M22,44h1v2h-1z M24,44h1v2h-1z M26,44h1v1h-1z M32,44h3v1h-3z M39,44h1v1h-1z M42,44h2v1h-2z M49,44h1v1h-1z M51,44h2v1h-2z M59,44h2v1h-2z M20,45h1v1h-1z M28,45h1v1h-1z M31,45h1v2h-1z M36,45h1v1h-1z M38,45h1v1h-1z M40,45h1v2h-1z M43,45h1v2h-1z M45,45h1v2h-1z M47,45h1v3h-1z M48,45h1v1h-1z M50,45h1v2h-1z M52,45h1v4h-1z M54,45h1v3h-1z M56,45h1v1h-1z M58,45h1v1h-1z M60,45h1v2h-1z M25,46h3v1h-3z M30,46h1v1h-1z M33,46h1v3h-1z M37,46h1v3h-1z M41,46h2v2h-2z M53,46h1v1h-1z M55,46h1v1h-1z M21,47h4v1h-4z M27,47h1v5h-1z M32,47h1v1h-1z M34,47h2v1h-2z M38,47h2v2h-2z M44,47h1v1h-1z M48,47h2v1h-2z M51,47h1v1h-1z M57,47h1v1h-1z M20,48h3v1h-3z M24,48h1v1h-1z M26,48h1v1h-1z M30,48h2v1h-2z M35,48h1v3h-1z M40,48h2v1h-2z M43,48h1v1h-1z M46,48h1v1h-1z M49,48h2v2h-2z M53,48h1v5h-1z M55,48h1v3h-1z M20,49h1v1h-1z M23,49h1v2h-1z M29,49h1v1h-1z M31,49h1v1h-1z M34,49h1v1h-1z M39,49h1v3h-1z M44,49h2v1h-2z M48,49h1v1h-1z M56,49h1v1h-1z M58,49h3v1h-3z M22,50h1v3h-1z M26,50h1v1h-1z M37,50h2v3h-2z M43,50h2v1h-2z M46,50h2v1h-2z M50,50h1v1h-1z M59,50h2v1h-2z M25,51h1v2h-1z M28,51h1v1h-1z M30,51h1v3h-1z M33,51h2v1h-2z M40,51h3v2h-3z M43,51h1v1h-1z M49,51h1v2h-1z M52,51h1v6h-1z M57,51h1v1h-1z M60,51h1v1h-1z M20,52h2v1h-2z M23,52h2v1h-2z M26,52h1v1h-1z M29,52h1v1h-1z M31,52h2v1h-2z M35,52h1v1h-1z M44,52h1v1h-1z M47,52h2v2h-2z M51,52h1v1h-1z M54,52h3v1h-3z M59,52h1v6h-1z M28,53h1v2h-1z M32,53h1v1h-1z M34,53h1v1h-1z M37,53h1v1h-1z M43,53h1v6h-1z M46,53h1v2h-1z M50,53h1v1h-1z M56,53h1v4h-1z M58,53h1v2h-1z M60,53h1v4h-1z M20,54h7v1h-7z M29,54h1v1h-1z M33,54h1v1h-1z M35,54h2v1h-2z M38,54h1v1h-1z M40,54h2v2h-2z M42,54h1v1h-1z M44,54h1v7h-1z M45,54h1v3h-1z M47,54h1v2h-1z M51,54h1v5h-1z M54,54h1v1h-1z M20,55h1v6h-1z M26,55h1v6h-1z M34,55h1v1h-1z M39,55h1v2h-1z M49,55h1v1h-1z M22,56h3v3h-3z M28,56h3v1h-3z M33,56h1v4h-1z M35,56h2v2h-2z M48,56h1v1h-1z M53,56h3v1h-3z M30,57h1v1h-1z M37,57h1v3h-1z M38,57h1v1h-1z M40,57h1v1h-1z M42,57h1v1h-1z M46,57h2v1h-2z M55,57h1v1h-1z M57,57h1v3h-1z M29,58h1v2h-1z M32,58h1v3h-1z M34,58h1v1h-1z M41,58h1v3h-1z M47,58h1v2h-1z M53,58h1v3h-1z M60,58h1v2h-1z M31,59h1v2h-1z M35,59h2v2h-2z M38,59h3v1h-3z M49,59h2v1h-2z M52,59h1v2h-1z M54,59h2v2h-2z M59,59h1v2h-1z M21,60h5v1h-5z M28,60h1v1h-1z M30,60h1v1h-1z M42,60h1v1h-1z M46,60h1v1h-1z M49,60h1v1h-1z M56,60h1v1h-1z" fill="#000000"/>
</svg>
